<?xml version="1.0" encoding="utf-8"?>
<!-- Generator: Adobe Illustrator 23.0.2, SVG Export Plug-In . SVG Version: 6.00 Build 0)  -->
<svg version="1.1" id="レイヤー_1" xmlns="http://www.w3.org/2000/svg" xmlns:xlink="http://www.w3.org/1999/xlink" x="0px"
	 y="0px" width="40px" height="50px" viewBox="0 0 40 50" style="enable-background:new 0 0 40 50;" xml:space="preserve">
<style type="text/css">
	.st0{fill:#FFFFFF;}
</style>
<g>
	<path class="st0" d="M13.11,19.91c1.02,3.88,4.92,5.32,9.75,5.96c-13.16-3.87-10.02-8.24,2.41-12.22
		C37.7,9.67,31.75-1.15,22.03,0.1c-5.13,0.71-11.77,4.02-7.05,8.95c-1.42-2.59-1.07-4.96,3.14-6.85c9.22-4.2,21.83,3.09,5.61,9.27
		C17.65,13.39,12.34,15.59,13.11,19.91z"/>
	<path class="st0" d="M24.66,14.91c-10.93,4.94-11.99,7.75-4.48,8.51C9.07,16.94,44.42,11.04,34.01,6.69
		C35.97,9.99,30.38,12.32,24.66,14.91z"/>
	<path class="st0" d="M37.76,29.24c-9.22-2.37-22.22-1.83-29.65-0.59c-1.68,0.19-1.85,0.49-0.96,1.58c0.19,0.47,0.1,1.27,0.11,2.09
		c-7.1,0.1-9.48,7.06-3.75,10.95c2.63,1.67,5.2,2.01,8.16,2.57c0.57,0.06,0.57,0.86,1.47,1.73c2.77,3.05,15.17,3.42,18.41,0
		c5.19-5.5,5.35-10.16,6.17-17.01C38.24,30.02,38.46,29.54,37.76,29.24z M2.45,39.36c-0.84-2.11-0.23-4.07,2.47-4.57
		c2.16-0.14,2.51,1.12,2.82,2.36c0.33,1.64,0.75,3.28,1.4,4.92C6.4,42.38,3.65,42.47,2.45,39.36z"/>
	<path class="st0" d="M22.94,9.38c0.14,0.01,0.29,0.01,0.44,0.01c3.29,0,5.95-1.55,5.95-3.47s-2.66-3.47-5.95-3.47
		c-3.29,0-5.95,1.55-5.95,3.47c0,0.08,0.01,0.17,0.02,0.25c0.21-1.53,2.41-2.74,5.09-2.74c2.82,0,5.11,1.33,5.11,2.98
		C27.64,7.97,25.57,9.26,22.94,9.38z"/>
	<path class="st0" d="M37.67,8.87c2.04,3.58-3.78,5.02-9.72,6.69c-11.37,3.2-12.46,5.82-4.66,7.75
		C11.73,15.14,48.49,14.8,37.67,8.87z"/>
</g>
</svg>
